<svg width="16" height="16" viewBox="0 0 16 16" fill="none" xmlns="http://www.w3.org/2000/svg">
<path d="M15 11C14.4477 11 14 11.4477 14 12V12.5C14 13.3284 13.3284 14 12.5 14H3.5C2.67157 14 2 13.3284 2 12.5V12C2 11.4477 1.55228 11 1 11C0.447715 11 0 11.4477 0 12V14C0 15.1 0.9 16 2 16H14C15.1 16 16 15.1 16 14V12C16 11.4477 15.5523 11 15 11ZM12.2943 7.70568C12.6841 7.31594 12.6841 6.68406 12.2943 6.29432C11.9051 5.90511 11.2743 5.9045 10.8843 6.29295L10.831 6.34609C10.1542 7.02029 9 6.54092 9 5.5856V1C9 0.447715 8.55229 0 8 0C7.44772 0 7 0.447715 7 1V5.5856C7 6.54092 5.84584 7.0203 5.16902 6.34609L5.11568 6.29296C4.72572 5.9045 4.09489 5.90511 3.70568 6.29432C3.31594 6.68406 3.31594 7.31594 3.70568 7.70568L5.5 9.5C6.88071 10.8807 9.11929 10.8807 10.5 9.5L12.2943 7.70568Z" fill="#1E88E5"/>
</svg>
