<svg width="36" height="20" viewBox="0 0 36 20" fill="none" xmlns="http://www.w3.org/2000/svg">
<path d="M0 17.7222V16.0556H6.86111V17.7222H0ZM0 3.94444V2.27778H11.4722V3.94444H0ZM8.52778 20V13.75H10.1944V16.0556H20V17.7222H10.1944V20H8.52778ZM5.19444 13.1111V10.8333H0V9.16667H5.19444V6.83333H6.86111V13.1111H5.19444ZM8.52778 10.8333V9.16667H20V10.8333H8.52778ZM13.1389 6.25V0H14.8056V2.27778H20V3.94444H14.8056V6.25H13.1389Z" fill="#5F6368"/>
<path d="M36 10.5L27.9703 19L27 17.9734L34 10.5L27 3.0625L28.0037 2L36 10.5Z" fill="#5F6368"/>
</svg>
