<svg width="26" height="26" viewBox="0 0 26 26" fill="none" xmlns="http://www.w3.org/2000/svg">
<circle cx="12.9729" cy="12.9729" r="12.9729" fill="#0077B5"/>
<path fill-rule="evenodd" clip-rule="evenodd" d="M9.58541 6.67089C9.58541 7.47851 8.97047 8.13211 8.00881 8.13211C7.08462 8.13211 6.46968 7.47851 6.48871 6.67089C6.46968 5.82401 7.0846 5.18945 8.02723 5.18945C8.97045 5.18945 9.56697 5.82401 9.58541 6.67089ZM6.56603 18.6937V9.28645H9.48965V18.6931H6.56603V18.6937Z" fill="white"/>
<path fill-rule="evenodd" clip-rule="evenodd" d="M11.8312 12.2887C11.8312 11.1153 11.7926 10.115 11.7539 9.28778H14.2933L14.4283 10.5765H14.486C14.8708 9.98004 15.8325 9.07666 17.3906 9.07666C19.314 9.07666 20.7567 10.3464 20.7567 13.1154V18.695H17.8331V13.4817C17.8331 12.2691 17.4103 11.4424 16.3523 11.4424C15.544 11.4424 15.0635 12.0003 14.8714 12.5385C14.7941 12.7312 14.756 13 14.756 13.27V18.695H11.8324V12.2887H11.8312Z" fill="white"/>
</svg>
