<svg width="15" height="15" viewBox="0 0 15 15" fill="none" xmlns="http://www.w3.org/2000/svg">
<path d="M1.22783 13.1343C1.22783 13.4859 1.51285 13.7714 1.86443 13.7714C2.03334 13.7714 2.19532 13.7042 2.31472 13.5848L11.603 4.29031C11.8517 4.04146 11.8517 3.63816 11.603 3.3893C11.3544 3.14055 10.9512 3.14055 10.7026 3.3893L1.41431 12.6837C1.29491 12.8032 1.22783 12.9654 1.22783 13.1343ZM1.85192 15C0.829134 15 0 14.1696 0 13.1469C0 12.6554 0.195127 12.1836 0.54249 11.836L12.0327 0.33817C12.2647 0.106092 12.5546 -0.00653327 12.9025 0.000292535C13.2503 0.00711834 13.5402 0.12657 13.7722 0.358647L14.6521 1.23918C14.884 1.47125 15 1.75794 15 2.09923C15 2.44052 14.884 2.7272 14.6521 2.95928L3.16186 14.4572C2.81452 14.8047 2.34329 15 1.85192 15ZM13.7108 2.07875L12.8718 1.23918L13.7108 2.07875ZM12.0532 3.83981L11.603 3.3893L11.1528 2.9388L12.0532 3.83981Z" fill="#5F6368"/>
</svg>
