<svg width="100" height="100" viewBox="0 0 100 100" fill="none" xmlns="http://www.w3.org/2000/svg">
<path d="M29.9983 100C27.4561 100 25.2952 99.1239 23.5156 97.3717C21.7361 95.6195 20.8463 93.4919 20.8463 90.9887C20.8463 88.4856 21.7361 86.3579 23.5156 84.6058C25.2952 82.8536 27.4561 81.9775 29.9983 81.9775C32.4558 81.9775 34.5955 82.8536 36.4174 84.6058C38.2394 86.3579 39.1503 88.4856 39.1503 90.9887C39.1503 93.4919 38.2605 95.6195 36.481 97.3717C34.7014 99.1239 32.5405 100 29.9983 100ZM80.8429 100C78.3007 100 76.1398 99.1239 74.3602 97.3717C72.5806 95.6195 71.6909 93.4919 71.6909 90.9887C71.6909 88.4856 72.5806 86.3579 74.3602 84.6058C76.1398 82.8536 78.3007 81.9775 80.8429 81.9775C83.3004 81.9775 85.4401 82.8536 87.262 84.6058C89.0839 86.3579 89.9949 88.4856 89.9949 90.9887C89.9949 93.4919 89.1051 95.6195 87.3256 97.3717C85.546 99.1239 83.3851 100 80.8429 100ZM23.3885 17.3967L37.3708 45.9324H73.9789L89.8678 17.3967H23.3885ZM19.5752 9.88736H94.4438C97.1555 9.88736 98.8715 10.7009 99.5918 12.3279C100.312 13.9549 100.079 15.7697 98.8927 17.7722L81.7327 48.1852C80.8853 49.6037 79.6989 50.8344 78.1735 51.8773C76.6482 52.9203 74.9958 53.4418 73.2162 53.4418H34.7014L27.5832 66.4581H89.9949V73.9675H28.7272C25.1681 73.9675 22.6047 72.7993 21.0369 70.4631C19.4692 68.1268 19.4904 65.4985 21.1005 62.5782L29.2356 47.8098L9.91469 7.50939H0V0H14.872L19.5752 9.88736ZM37.3708 45.9324H73.9789H37.3708Z" fill="#D2D2D2"/>
</svg>
