<svg width="17" height="12" viewBox="0 0 17 12" fill="none" xmlns="http://www.w3.org/2000/svg">
<path d="M14.6818 3.75V1.5H13.1364V3.75H10.8182V5.25H13.1364V7.5H14.6818V5.25H17V3.75H14.6818ZM6.18182 6C7.88955 6 9.27273 4.6575 9.27273 3C9.27273 1.3425 7.88955 0 6.18182 0C4.47409 0 3.09091 1.3425 3.09091 3C3.09091 4.6575 4.47409 6 6.18182 6ZM6.18182 1.5C7.03182 1.5 7.72727 2.175 7.72727 3C7.72727 3.825 7.03182 4.5 6.18182 4.5C5.33182 4.5 4.63636 3.825 4.63636 3C4.63636 2.175 5.33182 1.5 6.18182 1.5ZM11.1195 7.92C9.82136 7.275 8.13682 6.75 6.18182 6.75C4.22682 6.75 2.54227 7.275 1.24409 7.92C0.471364 8.3025 0 9.075 0 9.915V12H12.3636V9.915C12.3636 9.075 11.8923 8.3025 11.1195 7.92ZM10.8182 10.5H1.54545V9.915C1.54545 9.63 1.7 9.375 1.94727 9.255C2.86682 8.7975 4.35045 8.25 6.18182 8.25C8.01318 8.25 9.49682 8.7975 10.4164 9.255C10.6636 9.375 10.8182 9.63 10.8182 9.915V10.5Z" fill="#5F6368"/>
</svg>
