<svg width="24" height="23" viewBox="0 0 24 23" fill="none" xmlns="http://www.w3.org/2000/svg">
<path d="M4.32047 22.8245H19.6805V20.9312H23.5205V15.2512C23.5205 12.4897 21.6662 10.1482 19.1213 9.37189C20.3213 8.61408 21.1205 7.29064 21.1205 5.78449C21.1205 3.43581 19.1827 1.52449 16.8005 1.52449C16.3901 1.52449 15.983 1.58508 15.5856 1.70105C14.7057 0.724559 13.4265 0.104492 12.0005 0.104492C10.5744 0.104492 9.29519 0.724559 8.41535 1.70105C8.01791 1.58508 7.61087 1.52449 7.20047 1.52449C4.81823 1.52449 2.88047 3.43581 2.88047 5.78449C2.88047 7.29064 3.67967 8.61408 4.87967 9.37189C2.33471 10.1482 0.480469 12.4897 0.480469 15.2512V20.9312H4.32047V22.8245ZM18.7205 21.8778H5.28047V20.9312V14.7778C5.28047 14.6197 5.29055 14.4635 5.30447 14.3088C5.30927 14.2581 5.31551 14.2079 5.32127 14.1573C5.33423 14.0503 5.35103 13.9448 5.37071 13.8402C5.38079 13.7871 5.38895 13.7337 5.40047 13.6811C5.43023 13.5453 5.46527 13.4118 5.50511 13.2797C5.52527 13.2144 5.54927 13.151 5.57183 13.0866C5.59775 13.0118 5.62511 12.938 5.65439 12.8646C5.68271 12.7941 5.71247 12.724 5.74367 12.6549C5.77439 12.5872 5.80799 12.521 5.84159 12.4547C5.89055 12.3581 5.94239 12.2635 5.99711 12.1702C6.04511 12.0893 6.09311 12.0084 6.14495 11.9303C6.18527 11.8697 6.22847 11.811 6.27119 11.7518C6.31631 11.6893 6.36287 11.6278 6.41087 11.5677C6.45503 11.5123 6.49919 11.4574 6.54575 11.4039C6.60623 11.3343 6.66911 11.2671 6.73295 11.2008C6.79199 11.1393 6.85247 11.0787 6.91439 11.02C6.99071 10.9481 7.06799 10.8776 7.14863 10.8099C7.20143 10.7659 7.25615 10.7237 7.31087 10.6816C7.37375 10.6333 7.43711 10.586 7.50239 10.5405C7.56287 10.4979 7.62335 10.4558 7.68623 10.4156C7.74959 10.3749 7.81487 10.3375 7.87967 10.2996C8.00207 10.2281 8.12783 10.1614 8.25695 10.0994C8.32175 10.0682 8.38559 10.0355 8.45183 10.0066L8.52911 9.97255C9.15503 9.71458 9.84095 9.57116 10.5605 9.57116H13.4405C14.16 9.57116 14.8459 9.71458 15.4713 9.97302L15.5486 10.0071C15.6149 10.0355 15.6787 10.0686 15.7435 10.0999C15.8726 10.1619 15.9984 10.2286 16.1208 10.3001C16.1861 10.338 16.2513 10.3754 16.3142 10.4161C16.3766 10.4563 16.4376 10.4984 16.4981 10.541C16.5629 10.5865 16.6267 10.6338 16.6896 10.6821C16.7443 10.7242 16.799 10.7663 16.8518 10.8103C16.9325 10.8776 17.0097 10.9486 17.0861 11.0205C17.1485 11.0792 17.2085 11.1398 17.2675 11.2013C17.3313 11.2676 17.3947 11.3348 17.4547 11.4044C17.5008 11.4579 17.5454 11.5128 17.5896 11.5682C17.6376 11.6283 17.6841 11.6898 17.7293 11.7523C17.772 11.8114 17.8157 11.8697 17.8555 11.9307C17.9074 12.0088 17.9558 12.0898 18.0033 12.1707C18.0581 12.264 18.1099 12.3591 18.1589 12.4552C18.1925 12.5214 18.2261 12.5877 18.2568 12.6554C18.2885 12.7245 18.3177 12.7946 18.3461 12.8651C18.3753 12.938 18.4022 13.0123 18.4286 13.0871C18.4512 13.1515 18.4752 13.2154 18.4953 13.2802C18.5357 13.4118 18.5707 13.5457 18.6 13.6816C18.6115 13.7341 18.6201 13.7876 18.6297 13.8406C18.6489 13.9452 18.6662 14.0513 18.6792 14.1578C18.6854 14.2079 18.6917 14.2586 18.696 14.3092C18.7104 14.4635 18.7205 14.6197 18.7205 14.7778V20.9312V21.8778ZM22.5605 15.2512V19.9845H19.6805V14.7778C19.6805 14.553 19.6665 14.3315 19.6425 14.1128C19.6368 14.0612 19.6257 14.011 19.619 13.9599C19.596 13.7909 19.5691 13.6229 19.5326 13.4586C19.5206 13.4047 19.5043 13.3526 19.4909 13.2991C19.4505 13.1387 19.4059 12.9801 19.3531 12.8249C19.3353 12.7723 19.3147 12.7212 19.2955 12.6696C19.2389 12.5167 19.1769 12.3662 19.1088 12.2195C19.0848 12.1679 19.0593 12.1167 19.0334 12.0661C18.9619 11.9227 18.8851 11.783 18.8025 11.6463C18.7723 11.5961 18.7421 11.5459 18.7099 11.4962C18.6235 11.3623 18.5318 11.2326 18.4358 11.1057C18.4008 11.0593 18.3672 11.0125 18.3307 10.967C18.2256 10.8359 18.1137 10.7105 17.9981 10.5884C17.9654 10.5538 17.9352 10.5174 17.9016 10.4837C17.7499 10.3304 17.5915 10.1837 17.4245 10.0469C20.2694 10.1221 22.5605 12.4277 22.5605 15.2512ZM16.1875 2.52843C16.3901 2.49057 16.5945 2.47116 16.8005 2.47116C18.6528 2.47116 20.1605 3.95743 20.1605 5.78449C20.1605 7.61156 18.6528 9.09783 16.8005 9.09783C16.1414 9.09783 15.5073 8.90849 14.964 8.55633C14.9712 8.55113 14.9769 8.5445 14.9837 8.53882C15.3969 8.21459 15.7531 7.82456 16.0392 7.38483C16.0483 7.37063 16.0565 7.35643 16.0656 7.34223C16.1486 7.21159 16.2249 7.07717 16.295 6.93848C16.3065 6.91576 16.3171 6.89304 16.3281 6.87032C16.392 6.73921 16.4491 6.60478 16.5005 6.46704C16.511 6.43864 16.5221 6.41024 16.5321 6.38184C16.5787 6.24978 16.6185 6.11488 16.6531 5.97761C16.6617 5.94353 16.6718 5.90993 16.6795 5.87585C16.7102 5.74189 16.7333 5.60557 16.752 5.46736C16.7573 5.43091 16.7649 5.39494 16.7688 5.35802C16.7889 5.18762 16.8005 5.01391 16.8005 4.83783C16.8005 4.65039 16.7865 4.46673 16.7649 4.28497C16.7582 4.22723 16.7472 4.17043 16.7381 4.11268C16.7179 3.98583 16.6939 3.86039 16.6641 3.73685C16.6497 3.67674 16.6344 3.6171 16.6176 3.55793C16.5787 3.42114 16.5331 3.28719 16.4822 3.15607C16.4678 3.11963 16.4563 3.08223 16.4414 3.04626C16.3685 2.87113 16.2854 2.70167 16.1923 2.53743C16.1899 2.53411 16.1889 2.53127 16.1875 2.52843ZM14.9587 2.42619L14.988 2.46359C15.0115 2.49246 15.0326 2.52275 15.0552 2.5521C15.3 2.86971 15.4872 3.21571 15.6187 3.58065C15.6273 3.60432 15.6369 3.62751 15.6451 3.65165C15.7022 3.82158 15.7454 3.99529 15.7776 4.17232C15.7843 4.20924 15.7896 4.24711 15.7949 4.2845C15.8217 4.46673 15.8405 4.65086 15.8405 4.83783C15.8405 4.99308 15.8285 5.14644 15.8093 5.29838C15.8049 5.33388 15.7982 5.36891 15.7929 5.40441C15.7733 5.52984 15.7488 5.65385 15.7166 5.7755C15.7099 5.80106 15.7037 5.82709 15.6965 5.85265C15.6096 6.15748 15.4857 6.45 15.3264 6.72264C15.3235 6.72737 15.3206 6.73211 15.3177 6.73684C15.2405 6.86795 15.1541 6.99433 15.0609 7.11551C15.0523 7.12639 15.0441 7.13775 15.0355 7.14911C14.8401 7.39856 14.6126 7.62434 14.3568 7.82125C14.3419 7.83261 14.3261 7.84349 14.3112 7.85485C14.1926 7.94337 14.0688 8.02573 13.9392 8.10099C13.9161 8.11424 13.8945 8.12891 13.871 8.14169L13.8163 8.17293C13.2749 8.46072 12.6571 8.62449 12.0005 8.62449C11.3438 8.62449 10.7261 8.46072 10.1851 8.17293L10.1304 8.14169C10.1073 8.12891 10.0853 8.11424 10.0622 8.10099C9.93263 8.02573 9.80879 7.94337 9.69023 7.85485C9.67487 7.84349 9.65951 7.83261 9.64463 7.82125C9.38927 7.62434 9.16175 7.39856 8.96591 7.14911C8.95727 7.13823 8.94911 7.12687 8.94047 7.11551C8.84735 6.99433 8.76143 6.86795 8.68367 6.73684C8.68079 6.73211 8.67791 6.72737 8.67503 6.72264C8.51519 6.44953 8.39135 6.15701 8.30447 5.85218C8.29727 5.82709 8.29103 5.80106 8.28431 5.77597C8.25215 5.65385 8.22767 5.52984 8.20799 5.40441C8.20271 5.36891 8.19599 5.33435 8.19167 5.29838C8.17247 5.14644 8.16047 4.99308 8.16047 4.83783C8.16047 4.65086 8.17919 4.46673 8.20607 4.28497C8.21183 4.24758 8.21663 4.21019 8.22335 4.17279C8.25551 3.99624 8.29871 3.82205 8.35583 3.65213C8.36399 3.62799 8.37359 3.60479 8.38223 3.58113C8.51375 3.21619 8.70095 2.86971 8.94575 2.55257C8.96831 2.52323 8.98943 2.49246 9.01295 2.46406L9.04223 2.42667C9.74735 1.58697 10.8115 1.05116 12.0005 1.05116C13.1894 1.05116 14.2536 1.58697 14.9587 2.42619ZM3.84047 5.78449C3.84047 3.95743 5.34815 2.47116 7.20047 2.47116C7.40639 2.47116 7.61087 2.49057 7.81343 2.52843C7.81199 2.53127 7.81055 2.53459 7.80911 2.53743C7.71647 2.7012 7.63295 2.87065 7.55999 3.04579C7.54463 3.08223 7.53311 3.11963 7.51871 3.15655C7.46783 3.28766 7.42223 3.42161 7.38335 3.55793C7.36655 3.6171 7.35119 3.67674 7.33679 3.73685C7.30703 3.86039 7.28303 3.98583 7.26287 4.11268C7.25375 4.16995 7.24319 4.22675 7.23599 4.28497C7.21439 4.46673 7.20047 4.65039 7.20047 4.83783C7.20047 5.01391 7.21199 5.18762 7.23119 5.35849C7.23551 5.39541 7.24319 5.43091 7.24799 5.46736C7.26671 5.60557 7.29023 5.74237 7.32047 5.87632C7.32815 5.9104 7.33823 5.94353 7.34687 5.97714C7.38143 6.11441 7.42127 6.24978 7.46783 6.38231C7.47791 6.41119 7.48895 6.43911 7.49951 6.46799C7.55087 6.60525 7.60847 6.73968 7.67183 6.87079C7.68287 6.89351 7.69391 6.91671 7.70543 6.93943C7.77551 7.07811 7.85183 7.21254 7.93487 7.34318C7.94399 7.35738 7.95215 7.37158 7.96127 7.38578C8.24735 7.82551 8.60399 8.21506 9.01679 8.53977C9.02351 8.54545 9.02975 8.5516 9.03647 8.55728C8.49359 8.90849 7.85951 9.09783 7.20047 9.09783C5.34815 9.09783 3.84047 7.61156 3.84047 5.78449ZM1.44047 19.9845V15.2512C1.44047 12.4277 3.73151 10.1221 6.57695 10.0464C6.40991 10.1832 6.25151 10.3304 6.09983 10.4833C6.06623 10.5169 6.03599 10.5533 6.00335 10.5879C5.88767 10.71 5.77583 10.8354 5.67023 10.967C5.63423 11.012 5.60063 11.0588 5.56559 11.1052C5.46911 11.2321 5.37743 11.3618 5.29103 11.4962C5.25935 11.5459 5.22911 11.5956 5.19839 11.6463C5.11583 11.783 5.03903 11.9227 4.96751 12.0661C4.94207 12.1172 4.91663 12.1679 4.89215 12.2195C4.82351 12.3662 4.76207 12.5167 4.70543 12.6696C4.68623 12.7217 4.66559 12.7723 4.64783 12.8249C4.59503 12.9806 4.55039 13.1391 4.50959 13.3001C4.49615 13.3531 4.48031 13.4052 4.46831 13.4586C4.43183 13.6234 4.40495 13.7914 4.38191 13.9609C4.37471 14.012 4.36415 14.0617 4.35839 14.1133C4.33439 14.3315 4.32047 14.553 4.32047 14.7778V19.9845H1.44047Z" fill="white"/>
</svg>
