<svg width="56" height="36" viewBox="0 0 56 36" fill="none" xmlns="http://www.w3.org/2000/svg">
<path d="M55.8601 17.08C52.0001 6.7 40.9801 0 28.0001 0C15.0201 0 4.00007 6.7 0.140068 17.08C0.0455536 17.3082 -0.00205875 17.553 6.82452e-05 17.8V18C-0.00205875 18.247 0.0455536 18.4918 0.140068 18.72C4.14007 29.16 15.1001 35.9 28.1401 35.9C41.1801 35.9 52.0001 29.24 55.8601 18.92C55.9546 18.6918 56.0022 18.447 56.0001 18.2V17.8C56.0022 17.553 55.9546 17.3082 55.8601 17.08Z" fill="#D8E1EF"/>
<path d="M28 30C34.6274 30 40 24.6274 40 18C40 11.3726 34.6274 6 28 6C21.3726 6 16 11.3726 16 18C16 24.6274 21.3726 30 28 30Z" fill="#0593FF"/>
<path d="M24 20C23.4696 20 22.9609 19.7893 22.5858 19.4142C22.2107 19.0391 22 18.5304 22 18C22 16.4087 22.6321 14.8826 23.7574 13.7574C24.8826 12.6321 26.4087 12 28 12C28.5304 12 29.0391 12.2107 29.4142 12.5858C29.7893 12.9609 30 13.4696 30 14C30 14.5304 29.7893 15.0391 29.4142 15.4142C29.0391 15.7893 28.5304 16 28 16C27.4696 16 26.9609 16.2107 26.5858 16.5858C26.2107 16.9609 26 17.4696 26 18C26 18.5304 25.7893 19.0391 25.4142 19.4142C25.0391 19.7893 24.5304 20 24 20Z" fill="#0E6AE0"/>
</svg>
